<svg xmlns="http://www.w3.org/2000/svg" xmlns:xlink="http://www.w3.org/1999/xlink" viewBox="0 0 100 100" width="40px" height="40px"><polygon fill="#ff8405" points="38,18 38,58 20,50 20,62 36,71 72,71 72,37 49,32.667 49,18"/><path fill="#4343bf" d="M49,18v14.667L72,37v34H38l-18-9V50l18,8V18H49 M55,12h-6H38h-6v6v30.768l-9.563-4.25L14,40.768V50 v12v3.708l3.317,1.659l18,9L36.583,77H38h34h6v-6V37v-4.975l-4.889-0.921L55,27.691V18V12L55,12z"/><polygon fill="#3abcf8" points="82,81 38,81 38,71 72,71 72,38.328 49,34.995 49,18 59,18 59,26.339 82,29.672"/><rect width="4" height="6" x="44" y="41" fill="#edf7f5"/><rect width="4" height="6" x="53" y="43" fill="#edf7f5"/><rect width="4" height="6" x="62" y="45" fill="#edf7f5"/><rect width="36" height="6" x="36" y="81" fill="#4343bf"/><rect width="6" height="16" x="32" y="71" fill="#4343bf"/><defs><rect id="SphCZ4XldKERgQSov9j8la" width="76" height="80.343" x="-224" y="-294.343"/></defs><clipPath id="SphCZ4XldKERgQSov9j8lb"><use overflow="visible" xlink:href="#SphCZ4XldKERgQSov9j8la"/></clipPath><g clip-path="url(#SphCZ4XldKERgQSov9j8lb)"><defs><rect id="SphCZ4XldKERgQSov9j8lc" width="720.914" height="1533.029" x="-247.886" y="-476.743"/></defs></g></svg>